<svg enable-background="new 0 0 335.36 98.28" viewBox="0 0 335.36 98.28" height="66" width="225" xmlns="http://www.w3.org/2000/svg"><path d="m91 96.15-10.72-17.83-10.5 17.83h-12.58l16.16-26.85-16.47-24.94h13.13l10.56 16.64 10.05-16.64h12.57l-16.19 25.74 16.64 26.04z"/><path d="m144.51 78.55c0 11.4-8.58 18.48-19.83 18.48-9.92 0-18.26-5.46-19.08-17.38h10.72c.75 5.19 4.89 7.4 9.4 7.4 5.61 0 8.06-3.77 8.06-8.65 0-5.11-3.77-8.28-9.03-8.28-4.36 0-7.26 2.07-8.58 4.29h-10.26l3.54-30.03h33.72l-1.12 10.05h-24.12l-.93 9.94s2.54-2.98 10.2-2.98c9.26-0 17.31 6.21 17.31 17.16"/><path d="m106.89 37.92c-5.7-22.27-23.83-37.92-61.45-37.92h-45.44l6.16 41.69c4.64 37.62 19.02 49.73 44.48 54.18.11.02.93.13.93-.8 0-.34-.21-.63-.5-.76-17.22-7.26-19.17-31.02-22.85-54.85l-2.85-19.01h25.93c23.91 0 42.36-.37 54.05 18.07.17.26.45.45.76.45.45 0 .78-.37.78-.82.04-.08.02-.15 0-.23" fill="#55b435"/><path d="m199.25 43.78v6.16h-20.7v46.72h-8.11v-46.73h-20.7v-6.02h49.52v-.13z"/><path d="m243.31 84.49c-2.24 8.95-8.81 13.29-19.58 13.29-6.57 0-11.75-1.82-15.53-5.32s-5.6-8.39-5.6-14.55 1.96-11.19 5.74-14.97c3.92-3.78 8.81-5.74 15.11-5.74 6.85 0 12.03 1.96 15.39 6.02 3.36 3.92 5.04 8.95 5.04 15.11v.84h-33.71l-.14.42c0 4.06 1.26 7.27 3.78 9.51 2.52 2.38 5.88 3.5 10.21 3.5 3.22 0 5.74-.7 7.69-1.96 1.82-1.26 3.36-3.36 4.34-6.29h7.27zm-7.13-10.35c-.28-3.64-1.68-6.57-3.92-8.53-2.24-2.1-5.18-3.08-8.95-3.08-3.64 0-6.57.98-8.95 3.08s-3.78 4.9-4.2 8.53z"/><path d="m290.17 82.67c-.7 4.62-2.66 8.25-6.16 10.91s-7.97 4.06-13.43 4.06c-6.71 0-12.03-1.82-15.67-5.32-3.64-3.64-5.6-8.39-5.6-14.41 0-6.43 1.96-11.47 5.88-15.11 3.92-3.78 9.09-5.6 15.67-5.6 5.46 0 9.93 1.12 13.15 3.5 3.36 2.38 5.18 5.74 5.88 10.07h-7.69c-1.4-5.6-5.04-8.25-11.33-8.25-4.34 0-7.69 1.4-10.21 4.06s-3.78 6.29-3.78 10.91 1.12 8.25 3.5 10.91 5.6 4.06 9.79 4.06c3.36 0 6.16-.84 8.25-2.52 2.1-1.68 3.5-4.06 4.06-7.27z"/><path d="m305.56 43.78v20c3.36-4.2 8.25-6.43 14.69-6.43 10.07 0 15.11 4.34 15.11 13.01v26.16h-7.41v-24.62c0-2.94-.7-5.18-2.1-6.71-1.4-1.54-3.92-2.38-7.69-2.38-4.48 0-7.69 1.26-9.65 3.78s-2.94 6.02-2.94 10.63v19.44h-7.41v-52.88z"/></svg>
