<svg height="600pt" preserveAspectRatio="xMidYMid meet" viewBox="0 0 600 600" width="600pt" xmlns="http://www.w3.org/2000/svg"><g transform="matrix(.1 0 0 -.1 0 600)"><path d="m1344 4853c4-32 45-499 91-1038 47-539 110-1270 141-1625 30-355 59-648 63-652 10-11 442-130 448-124 3 3 43 147 88 321l83 316-34 387c-18 213-34 406-34 430v42h148 147l86 330c47 182 83 332 81 335-3 3-121 5-263 5h-258l-5 43c-3 23-15 152-26 287s-23 266-26 293l-6 47h380c210 0 383 4 386 8 3 5 41 148 86 318 44 170 83 315 85 322 3 9-167 12-831 12h-836z"/><path d="m3346 4902c-5-8-166-624-166-635 0-4 169-7 375-7h375l-1-32c0-18-12-172-27-343l-27-310-442-3-442-2-10-38c-5-20-44-167-85-326-42-159-76-291-76-292 0-2 223-4 495-4h495v-32c0-57-70-782-78-807-6-22-36-31-352-117-190-52-361-94-380-94s-123 24-230 53c-107 30-196 53-198 52-4-3-170-639-168-642 1-1 134-39 296-84l294-81 683 188c595 164 684 192 688 209 2 11 67 756 144 1655 78 899 143 1650 145 1668l5 32h-654c-360 0-656-3-659-8z"/></g></svg>